<svg xmlns="http://www.w3.org/2000/svg" width="28" height="20" viewBox="0 0 28 20">
  <path fill="#1A1A1A" fill-rule="evenodd" d="M19,5 L22,8 L27,8 L29,9.999 L29,23 L27,25 L3,25 L1,23 L1,9.999 L3,8 L6,8 L9,5 L19,5 Z M16.6923,8.9998 L11.3073,8.9998 L7.5003,12.8078 L7.5003,18.1918 L11.3073,21.9998 L16.6923,21.9998 L20.4993,18.1918 L20.5003,12.8078 L16.6923,8.9998 Z M13.9995,11.1698 C16.3915,11.1698 18.3295,13.1088 18.3295,15.4998 C18.3295,17.8908 16.3915,19.8298 13.9995,19.8298 C11.6085,19.8298 9.6705,17.8908 9.6705,15.4998 C9.6705,13.1088 11.6085,11.1698 13.9995,11.1698 Z M25.9999,12.9998 L23.9999,12.9998 L23.9999,18.9998 L25.9999,18.9998 L25.9999,12.9998 Z" transform="translate(-1 -5)"/>
</svg>
