<svg xmlns="http://www.w3.org/2000/svg" width="21" height="21" viewBox="0 0 21 21">
  <path d="M23,5 L17.1,10.9 L15.591,12.763 L17.359,14.53 L19.222,13.022 L25.121,7.121 L25.121,5 L23,5 Z M5,5 L5,7.121 L10.9,13.021 L12.762,14.53 L14.53,12.763 L13.022,10.9 L7.121,5 L5,5 Z M15.591,17.359 L17.053,19.269 L23,25.121 L25.121,25.121 L25.121,23 L19.222,17.1 L17.359,15.591 L15.591,17.359 Z M10.9,17.1 L5,23 L5,25.121 L7.121,25.121 L13.021,19.221 L14.53,17.359 L12.762,15.591 L10.9,17.1 Z" transform="translate(-5 -5)"/>
</svg>
