<svg xmlns="http://www.w3.org/2000/svg" width="742" height="199" viewBox="0 0 742 199">
  <path d="M0.5,562.093578 L0.5,708.90532 C10.0429935,720.502654 23.0718709,728.791583 37.7097346,732.426561 C43.2312582,733.79777 48.9015643,734.5 54.6468286,734.5 C60.3900232,734.5 66.0602878,733.79774 71.5828346,732.426556 C86.0699107,728.829492 98.98405,720.673456 108.5,709.258736 L108.5,561.74016 C105.693551,558.373708 102.588301,555.280891 99.227061,552.507853 C86.7634003,542.220177 71.1444277,536.5 54.6468286,536.5 C38.1477138,536.5 22.5297444,542.219705 10.0643879,552.507846 C6.58479724,555.380069 3.38213658,558.590939 0.5,562.093578 Z M643.5,539.5 L643.5,732.5 L700.456585,732.500016 L701.056033,732.495227 C708.261474,732.379953 715.956872,730.177151 723.881562,725.936816 C732.009989,721.588625 737.967207,715.356183 741.5,707.506257 L741.5,564.49639 L741.309835,564.078896 C737.754742,556.423238 731.864544,550.333572 723.881513,546.063158 C715.737151,541.705281 707.835921,539.5 700.460592,539.5 L643.5,539.5 Z M529.5,539.5 L529.5,732.444375 L572.508591,732.49936 L572.508591,658.59508 L580.358984,658.59508 L596.572326,732.443736 L630.5,732.443736 L630.5,703.045943 L616.035495,652.182449 L616.32491,651.97806 C622.749057,647.441245 627.437461,639.933414 630.5,629.418216 L630.5,564.487923 C626.946586,556.640082 620.955657,550.409695 612.780464,546.06287 C604.588843,541.70506 596.64117,539.5 589.220827,539.5 L529.5,539.5 Z M500.808333,539.5 L433.191658,539.5 L414.5,702.963176 L414.5,732.499608 L452.930966,732.469471 L457.326242,683.988196 L457.782908,683.988141 L466.999509,683.987038 L476.673769,683.988196 L481.067943,732.469471 L519.500054,732.499608 L519.503236,703.01997 L500.808333,539.5 Z M281.698515,539.5 L243.557443,539.5 L243.496769,571.273638 L261.916148,732.499834 L317.218855,732.479211 L325.585094,644.726224 L333.414911,644.726224 L341.78005,732.475928 L397.083864,732.499807 L415.500001,571.331295 L415.442505,539.5 L377.300388,539.5 L368.022949,659.582106 L360.186297,659.582106 L348.652303,539.5 L310.346599,539.5 L298.813707,659.582106 L290.977056,659.582106 L281.698515,539.5 Z M230.5,539.500744 L192.175258,539.557703 L192.175258,629.592893 L183.17979,629.592893 L163.454459,539.558446 L120.5,539.558446 L120.5,732.499691 L158.802651,732.476048 L158.802651,642.435233 L167.798207,642.445039 L187.524427,732.475193 L230.5,732.416869 L230.5,539.500744 Z M701.997682,563.912158 L718.095288,563.912158 L680.381125,708.144122 L664.186037,708.144122 L701.997682,563.912158 Z M66.9062441,563.035851 L83.0847307,563.035851 L45.113691,707.888899 L28.8370102,707.888899 L66.9062441,563.035851 Z M463.035699,589.306346 L470.895539,589.306346 L474.44196,652.657934 L459.558618,652.657934 L463.035699,589.306346 Z M581.475952,573.142897 C586.095945,573.142897 588.822129,575.200863 589.709672,579.331911 L589.720827,579.436938 L589.720827,618.655936 L589.709665,618.760991 C588.826935,622.868469 585.848175,624.947771 580.922747,624.947771 L572.478402,624.947771 L572.511119,573.142897 L581.475952,573.142897 Z" transform="translate(0 -536)"/>
</svg>
