<svg xmlns="http://www.w3.org/2000/svg" width="742" height="199" viewBox="0 0 742 199">
  <path d="M54.4506542,1.10497238 C71.442675,1.10497238 87.0290917,7.14585635 99.188175,17.2033149 C102.617717,20.038674 105.771217,23.1977901 108.608925,26.6265193 L108.608925,26.6265193 L108.608925,174.287293 C99.1771333,185.683978 86.2340917,194.045304 71.4459875,197.724862 C66.0013417,199.079558 60.3115708,199.809945 54.4506542,199.809945 C48.5875292,199.809945 42.8977583,199.079558 37.4542167,197.724862 C22.5126333,194.00663 9.45696667,185.509392 -0.000220833333,173.932597 L-0.000220833333,173.932597 L-0.000220833333,26.9812155 C2.913675,23.4143646 6.16434167,20.1370166 9.710925,17.2033149 C21.8711125,7.14585635 37.456425,1.10497238 54.4506542,1.10497238 Z M231.152323,3.15867403 L231.152323,197.464751 L187.290406,197.52442 L167.571094,107.312265 L159.480865,107.303425 L159.480865,197.52442 L120.192406,197.548729 L120.192406,3.21723757 L164.033344,3.21723757 L183.751552,93.4327072 L191.841781,93.4327072 L191.841781,3.21723757 L231.152323,3.15867403 Z M281.954479,3.15469613 L291.252667,123.441989 L298.186833,123.441989 L309.744146,3.15469613 L349.041438,3.15469613 L360.599854,123.441989 L367.534021,123.441989 L376.831104,3.15469613 L416.017979,3.15469613 L416.0765,35.5403315 L397.567354,197.486188 L341.243813,197.461878 L332.860979,109.562431 L325.925708,109.562431 L317.541771,197.465193 L261.219333,197.486188 L242.710188,35.5403315 L242.768708,3.15469613 L281.954479,3.15469613 Z M501.289569,3.15425414 L520.093527,167.392928 L520.093527,197.480221 L480.582027,197.449282 L476.174194,148.886851 L466.927902,148.885746 L457.682715,148.886851 L453.273777,197.449282 L413.763381,197.480221 L413.763381,167.392928 L432.56734,3.15425414 L501.289569,3.15425414 Z M589.438506,3.15425414 C596.894944,3.15425414 604.90236,5.3641989 613.184715,9.78629834 C621.469277,14.2072928 627.544402,20.561989 631.132944,28.5752486 L631.132944,93.7885083 C628.096485,104.289061 623.402673,112.024972 616.775465,116.72221 L631.132944,167.392928 L631.132944,197.408398 L596.373777,197.408398 L580.193319,123.441547 L573.259152,123.441547 L573.259152,197.464751 L529.339819,197.408398 L529.339819,3.15425414 L589.438506,3.15425414 Z M700.305894,3.15502762 C707.761227,3.15502762 715.768644,5.36497238 724.050998,9.78596685 C732.155461,14.1108528 738.146562,20.2873376 741.762772,28.055771 L742.000331,28.5760221 L742.000331,171.988177 C738.41179,180.001436 732.33556,186.356133 724.050998,190.777127 C715.992491,195.078635 708.194261,197.286995 700.911585,197.403223 L700.305894,197.408066 L642.630852,197.408066 L642.630852,3.15502762 L700.305894,3.15502762 Z M82.1409458,28.6 L67.0503,28.6 L29.3794458,172.239779 L44.5672583,172.239779 L82.1409458,28.6 Z M717.356435,28.6003315 L702.235977,28.6003315 L664.546352,172.019116 L679.763977,172.019116 L717.356435,28.6003315 Z M470.36186,54.0459669 L463.42659,54.0459669 L459.993735,116.50232 L473.863173,116.50232 L470.36186,54.0459669 Z M581.70934,37.8525967 L573.26136,37.8525967 L573.22934,88.7387845 L581.157256,88.7387845 C585.851069,88.7387845 588.610381,86.8050829 589.438506,82.9376796 L589.438506,43.6559116 C588.610381,39.7874033 586.126006,37.8525967 581.70934,37.8525967 Z" transform="translate(0 -1)"/>
</svg>
