<svg xmlns="http://www.w3.org/2000/svg" width="742" height="199" viewBox="0 0 742 199">
  <path d="M0.5,26.0935776 L0.5,172.90532 C10.0429935,184.502654 23.0718709,192.791583 37.7097346,196.426561 C43.2312582,197.79777 48.9015643,198.5 54.6468286,198.5 C60.3900232,198.5 66.0602878,197.79774 71.5828346,196.426556 C86.0699107,192.829492 98.98405,184.673456 108.5,173.258736 L108.5,25.7401596 C105.693551,22.3737082 102.588301,19.2808905 99.227061,16.5078529 C86.7634003,6.22017702 71.1444277,0.5 54.6468286,0.5 C38.1477138,0.5 22.5297444,6.21970489 10.0643879,16.5078463 C6.58479724,19.3800695 3.38213658,22.5909389 0.5,26.0935776 Z M643.5,3.5 L643.5,196.5 L700.456585,196.500016 L701.056033,196.495227 C708.261474,196.379953 715.956872,194.177151 723.881562,189.936816 C732.009989,185.588625 737.967207,179.356183 741.5,171.506257 L741.5,28.4963903 L741.309835,28.0788958 C737.754742,20.4232383 731.864544,14.3335715 723.881513,10.0631581 C715.737151,5.70528091 707.835921,3.5 700.460592,3.5 L643.5,3.5 Z M529.5,3.5 L529.5,196.444375 L572.508591,196.49936 L572.508591,122.59508 L580.358984,122.59508 L596.572326,196.443736 L630.5,196.443736 L630.5,167.045943 L616.035495,116.182449 L616.32491,115.97806 C622.749057,111.441245 627.437461,103.933414 630.5,93.4182163 L630.5,28.4879235 C626.946586,20.6400815 620.955657,14.4096951 612.780464,10.0628701 C604.588843,5.70505997 596.64117,3.5 589.220827,3.5 L529.5,3.5 Z M500.808333,3.5 L433.191658,3.5 L414.5,166.963176 L414.5,196.499608 L452.930966,196.469471 L457.326242,147.988196 L457.782908,147.988141 L466.999509,147.987038 L476.673769,147.988196 L481.067943,196.469471 L519.500054,196.499608 L519.503236,167.01997 L500.808333,3.5 Z M281.698515,3.5 L243.557443,3.5 L243.496769,35.2736382 L261.916148,196.499834 L317.218855,196.479211 L325.585094,108.726224 L333.414911,108.726224 L341.78005,196.475928 L397.083864,196.499807 L415.500001,35.3312949 L415.442505,3.5 L377.300388,3.5 L368.022949,123.582106 L360.186297,123.582106 L348.652303,3.5 L310.346599,3.5 L298.813707,123.582106 L290.977056,123.582106 L281.698515,3.5 Z M230.5,3.50074367 L192.175258,3.55770346 L192.175258,93.5928929 L183.17979,93.5928929 L163.454459,3.55844602 L120.5,3.55844602 L120.5,196.499691 L158.802651,196.476048 L158.802651,106.435233 L167.798207,106.445039 L187.524427,196.475193 L230.5,196.416869 L230.5,3.50074367 Z M701.997682,27.9121582 L718.095288,27.9121582 L680.381125,172.144122 L664.186037,172.144122 L701.997682,27.9121582 Z M66.9062441,27.0358509 L83.0847307,27.0358509 L45.113691,171.888899 L28.8370102,171.888899 L66.9062441,27.0358509 Z M463.035699,53.3063458 L470.895539,53.3063458 L474.44196,116.657934 L459.558618,116.657934 L463.035699,53.3063458 Z M581.475952,37.1428965 C586.095945,37.1428965 588.822129,39.2008626 589.709672,43.3319114 L589.720827,43.4369381 L589.720827,82.655936 L589.709665,82.7609914 C588.826935,86.868469 585.848175,88.9477711 580.922747,88.9477711 L572.478402,88.9477711 L572.511119,37.1428965 L581.475952,37.1428965 Z"/>
</svg>
