<svg height="109" viewBox="0 0 168 109" width="168" xmlns="http://www.w3.org/2000/svg"><path d="m151.122275 101.880506h-4.126821l10.221194-38.7531607h4.100323zm12.010539-43.8367738c-2.246553-1.1946206-4.417771-1.7919309-6.439877-1.7919309h-15.640666v24.9098599 27.5793658h15.640666c2.022106 0 4.193324-.597311 6.439877-1.791931 2.246034-1.194103 3.894061-2.911953 4.867186-5.077397v-21.1301754-17.6203949c-.973125-2.1654441-2.621152-3.8827759-4.867186-5.0773965zm-71.6101855 28.8356339.9310415-16.8759587h1.8802674l.9497455 16.8759587zm11.1989955-30.6275648h-9.3187281-9.3182085l-5.0994267 44.3786527v8.12974l10.7147708-.008288 1.1954948-13.1216591h2.5073696 2.5073696l1.1954948 13.1216591 10.7152907.008288v-8.12974zm21.659185 23.1256997c1.272908 0 2.021586-.5221932 2.246033-1.5676158v-10.6137844c-.224447-1.0459405-.898309-1.5681338-2.096402-1.5681338h-2.290715l-.008833 13.749534zm-14.052389-23.1256997h16.298422c2.022106 0 4.193324.5973103 6.439877 1.7919309 2.246554 1.1946206 3.894061 2.9119524 4.867186 5.0773965v17.6203949c-.823494 2.8378715-2.096402 4.9281985-3.893541 6.1974181l3.893541 13.6915123v8.110573h-9.426276l-4.388156-19.9863241h-1.880787v20.0013471l-11.910266-.015023zm-30.7316437 0h-10.6274857l-2.5213976 32.5029016h-1.8802674l-3.1344718-32.5029016h-4.3881567-1.880787-4.3881566l-3.1344718 32.5029016h-1.880787l-2.5208781-32.5029016h-10.6269661l-.0161062 8.7503627 5.0194153 43.759585 15.2743804-.005699 2.2735701-23.7515026h.0005196 1.8797479.0005195l2.2735702 23.7509846 15.2743804.006217 5.0194152-43.759585zm-67.5103818-9.9496458h-4.11902747l10.21599857-38.81273635h4.0925302zm14.8124965-41.89201859c-3.2976119-2.71820221-7.5247067-4.35057407-12.1326348-4.35057407-4.6084477 0-8.83502294 1.63237186-12.13263484 4.35057407-.96169524.79261471-1.84389864 1.6784782-2.63362136 2.64153098v39.70792471c2.56452062 3.1279788 6.10528399 5.4239712 10.1572889 6.428986 1.4760541.3657424 3.0191308.563119 4.6089673.563119s3.1329131-.1973766 4.6089672-.563119c4.0109602-.9946538 7.5205503-3.2538647 10.0788362-6.333147v-39.8990847c-.7699796-.92678935-1.6251662-1.78001577-2.5551686-2.54620999zm5.6963947-3.77916621h11.8889638l5.3472541 24.3767876h2.1940783v-24.3767876l10.6612567-.01605951v52.50321271l-11.8951985.0160595-5.3477736-24.3757515-2.1940783-.0025903v24.3783418l-10.6545025.0062166z" fill="#1a1a1a" fill-rule="evenodd"/></svg>