<svg xmlns="http://www.w3.org/2000/svg" width="168" height="109" viewBox="0 0 168 109">
  <path fill="#1A1A1A" fill-rule="evenodd" d="M151.122275,101.880506 L146.995454,101.880506 L157.216648,63.1273453 L161.316971,63.1273453 L151.122275,101.880506 Z M163.132814,58.0437322 C160.886261,56.8491116 158.715043,56.2518013 156.692937,56.2518013 L141.052271,56.2518013 L141.052271,81.1616612 L141.052271,108.741027 L156.692937,108.741027 C158.715043,108.741027 160.886261,108.143716 163.132814,106.949096 C165.378848,105.754993 167.026875,104.037143 168,101.871699 L168,80.7415236 L168,63.1211287 C167.026875,60.9556846 165.378848,59.2383528 163.132814,58.0437322 L163.132814,58.0437322 Z M91.5226285,86.8793661 L92.45367,70.0034074 L94.3339374,70.0034074 L95.2836829,86.8793661 L91.5226285,86.8793661 Z M102.721624,56.2518013 L93.4028959,56.2518013 L84.0846874,56.2518013 L78.9852607,100.630454 L78.9852607,108.760194 L89.7000315,108.751906 L90.8955263,95.6302469 L93.4028959,95.6302469 L95.9102655,95.6302469 L97.1057603,108.751906 L107.821051,108.760194 L107.821051,100.630454 L102.721624,56.2518013 Z M124.380809,79.377501 C125.653717,79.377501 126.402395,78.8553078 126.626842,77.8098852 L126.626842,67.1961008 C126.402395,66.1501603 125.728533,65.627967 124.53044,65.627967 L122.239725,65.627967 L122.230892,79.377501 L124.380809,79.377501 Z M110.32842,56.2518013 L126.626842,56.2518013 C128.648948,56.2518013 130.820166,56.8491116 133.066719,58.0437322 C135.313273,59.2383528 136.96078,60.9556846 137.933905,63.1211287 L137.933905,80.7415236 C137.110411,83.5793951 135.837503,85.6697221 134.040364,86.9389417 L137.933905,100.630454 L137.933905,108.741027 L128.507629,108.741027 L124.119473,88.7547029 L122.238686,88.7547029 L122.238686,108.75605 L110.32842,108.741027 L110.32842,56.2518013 Z M79.5967763,56.2518013 L68.9692906,56.2518013 L66.447893,88.7547029 L64.5676256,88.7547029 L61.4331538,56.2518013 L57.0449971,56.2518013 L55.1642101,56.2518013 L50.7760535,56.2518013 L47.6415817,88.7547029 L45.7607947,88.7547029 L43.2399166,56.2518013 L32.6129505,56.2518013 L32.5968443,65.002164 L37.6162596,108.761749 L52.89064,108.75605 L55.1642101,85.0045474 L55.1647297,85.0045474 L57.0444776,85.0045474 L57.0449971,85.0045474 L59.3185673,108.755532 L74.5929477,108.761749 L79.6123629,65.002164 L79.5967763,56.2518013 Z M12.0863945,46.3021555 L7.96736703,46.3021555 L18.1833656,7.48941915 L22.2758958,7.48941915 L12.0863945,46.3021555 Z M26.898891,4.41013691 C23.6012791,1.6919347 19.3741843,0.0595628415 14.7662562,0.0595628415 C10.1578085,0.0595628415 5.93123326,1.6919347 2.63362136,4.41013691 C1.67192612,5.20275162 0.789722719,6.08861511 0,7.05166789 L0,46.7595926 C2.56452062,49.8875714 6.10528399,52.1835638 10.1572889,53.1885786 C11.633343,53.554321 13.1764197,53.7516976 14.7662562,53.7516976 C16.3560927,53.7516976 17.8991693,53.554321 19.3752234,53.1885786 C23.3861836,52.1939248 26.8957737,49.9347139 29.4540596,46.8554316 L29.4540596,6.9563469 C28.68408,6.02955755 27.8288934,5.17633113 26.898891,4.41013691 L26.898891,4.41013691 Z M32.5952857,0.6309707 L44.4842495,0.6309707 L49.8315036,25.0077583 L52.0255819,25.0077583 L52.0255819,0.6309707 L62.6868386,0.614911186 L62.6868386,53.1181239 L50.7916401,53.1341834 L45.4438665,28.7584319 L43.2497882,28.7558416 L43.2497882,53.1341834 L32.5952857,53.1404 L32.5952857,0.6309707 Z"/>
</svg>
